# Blender 3.6.0
# www.blender.org
mtllib model.mtl
o Mesh_0
v 0.086363 0.127319 -0.631400
v 0.156124 0.159007 -0.656399
v 0.098001 0.228202 -0.621910
v 0.018066 0.181540 -0.643531
v -0.144386 -0.357792 -0.279407
v 0.105618 -0.311211 -0.264453
v 0.665233 -0.399223 -0.188501
v 0.692785 -0.363375 -0.256977
v 0.741397 -0.282709 -0.206907
v 0.743808 -0.343244 -0.193000
v 0.422745 -0.171276 -0.175437
v 0.046478 -0.307753 -0.223483
v 0.434136 -0.301443 -0.255647
v 0.702016 -0.243327 -0.145580
v 0.141361 -0.321387 -0.197925
v 0.491401 -0.196949 -0.173940
v -0.156922 -0.412668 -0.250753
v 0.644729 -0.301028 -0.238269
v 0.481342 -0.305314 -0.121584
v 0.505078 -0.313315 -0.182747
v 0.013279 -0.269322 -0.144476
v 0.115988 0.156902 -0.160274
v 0.072651 -0.185048 -0.184587
v 0.193051 -0.326066 -0.180964
v 0.319045 0.075466 -0.174362
v -0.148002 -0.329988 -0.205544
v 0.300970 -0.327687 -0.163446
v 0.202752 -0.324803 -0.183611
v 0.169917 -0.243714 -0.157728
v 0.211034 -0.285591 -0.137719
v -0.260054 -0.094417 -0.139744
v -0.222156 0.031218 -0.112987
v -0.115006 -0.396140 -0.180476
v 0.612129 -0.333142 -0.171129
v 0.097414 -0.342782 -0.160399
v 0.284380 -0.274151 -0.143390
v 0.350870 -0.323563 -0.172377
v 0.350897 -0.324922 -0.163187
v 0.028609 0.154571 -0.579244
v 0.073506 -0.299633 -0.118857
v 0.406379 -0.321011 -0.163777
v 0.362966 -0.292739 -0.119508
v 0.459206 -0.316138 -0.002537
v 0.674648 -0.264815 -0.127007
v 0.729468 -0.296808 -0.156316
v -0.381039 -0.152135 -0.091240
v 0.779146 -0.099497 0.140314
v 0.148817 0.246787 -0.117780
v 0.425384 -0.373219 -0.151421
v -0.640640 -0.089331 -0.063840
v 0.635837 -0.021166 -0.111088
v 0.468564 0.143508 -0.135751
v 0.210812 0.205938 -0.120057
v 0.841129 0.174043 -0.116229
v 0.184784 0.290518 -0.091499
v 0.280313 0.333217 -0.055592
v 0.877383 0.230420 -0.152481
v 0.843022 0.262412 -0.086710
v -0.880792 0.277122 -0.010547
v 0.340029 0.290632 -0.005982
v -0.734338 -0.188810 -0.090459
v -0.850710 -0.194368 -0.078615
v 0.363807 0.249542 -0.046831
v 0.254192 0.259840 -0.112617
v -0.880176 -0.193024 0.017693
v 0.774153 -0.241395 -0.106932
v 0.750683 -0.124267 -0.146198
v -0.615837 0.023741 -0.080947
v 0.182462 0.348374 -0.001584
v 0.110962 0.259416 -0.024256
v 0.894125 0.202225 -0.024340
v -0.732348 0.006354 -0.095808
v -0.800447 0.038501 -0.010208
v -0.880798 -0.121913 -0.042542
v -0.791880 0.280583 -0.056640
v -0.736763 -0.209826 0.004168
v -0.743005 0.270661 -0.013597
v -0.821770 0.302695 -0.011316
v 0.024605 -0.290292 0.122173
v -0.614004 0.033252 0.023878
v -0.091569 0.125865 -0.112074
v -0.635876 -0.051834 0.068316
v -0.240631 0.050780 0.079651
v 0.147352 0.214366 -0.039209
v 0.159356 0.176161 0.156127
v 0.176768 -0.326392 0.144073
v 0.246002 -0.292658 0.181170
v 0.464883 0.194320 0.014187
v 0.214912 0.294878 0.141035
v 0.287526 0.341865 0.061708
v 0.499583 -0.299434 0.155198
v 0.167005 0.298450 0.345235
v -0.135039 -0.405759 0.180926
v -0.080910 0.129501 0.137705
v 0.499121 -0.341495 0.194008
v 0.635672 -0.416440 0.217943
v 0.457657 -0.387530 0.177941
v 0.605769 -0.335806 0.215616
v 0.720820 -0.252112 0.179519
v 0.235616 0.180425 0.139144
v -0.203416 0.009310 0.132827
v 0.187459 0.211408 0.185271
v 0.206982 0.160736 0.177582
v 0.264920 0.268563 0.105978
v 0.404945 -0.335305 0.289443
v 0.373472 -0.291663 0.172061
v 0.751391 -0.249638 0.135054
v -0.302412 -0.143781 0.109651
v 0.658415 -0.265595 0.185915
v 0.473080 0.140529 0.154236
v 0.204056 0.149140 0.185789
v 0.147398 0.262399 0.139699
v 0.185652 0.212976 0.188555
v 0.129195 0.221151 0.686158
v 0.131867 0.264028 0.694544
v 0.729641 -0.338576 0.242186
v 0.034317 -0.316507 0.193013
v 0.065730 -0.235580 0.233544
v 0.719730 -0.246027 0.188781
v 0.447241 -0.139734 0.210221
v 0.490898 -0.323881 0.257458
v 0.567869 0.005812 0.198238
v -0.061487 0.054586 0.191211
v 0.597301 -0.331431 0.277604
v 0.032382 -0.180222 0.181162
v -0.143824 -0.421733 0.251156
v -0.163625 -0.322302 0.216211
v -0.138038 -0.333124 0.269054
v 0.641149 -0.396782 0.289006
v 0.714770 -0.296146 0.272646
v -0.174999 -0.386368 0.267802
v 0.057242 -0.347703 0.284011
v 0.269472 0.260532 0.678401
v 0.269919 0.207687 0.663805
vn -0.1484 -0.3902 -0.9087
vn -0.0124 0.4377 -0.8990
vn -0.5790 -0.7814 -0.2328
vn -0.5000 0.8658 -0.0199
vn 0.4746 -0.4463 0.7587
vn 0.6762 0.6928 -0.2504
vn 0.3559 0.9196 -0.1663
vn -0.9464 0.2117 0.2440
vn 0.0821 -0.9935 0.0786
vn 0.0275 0.1686 -0.9853
vn 0.0231 0.1178 -0.9928
vn -0.1567 0.9392 -0.3055
vn 0.0767 0.3403 -0.9372
vn 0.0206 -0.4665 -0.8843
vn 0.0485 -0.8928 -0.4479
vn 0.5617 -0.8041 -0.1950
vn -0.9799 0.1661 -0.1105
vn -0.1384 0.9246 -0.3548
vn 0.2060 0.4235 -0.8822
vn 0.7934 -0.1061 -0.5994
vn -0.0165 0.9842 0.1763
vn 0.2146 0.5259 -0.8230
vn -0.5178 0.3569 -0.7775
vn 0.7210 0.1362 -0.6794
vn 0.0132 0.8452 -0.5343
vn 0.5138 0.5507 -0.6578
vn 0.8739 -0.0726 -0.4806
vn -0.0338 0.9851 0.1688
vn -0.8028 0.3289 -0.4973
vn 0.1857 -0.1375 -0.9729
vn 0.0697 0.1288 -0.9892
vn 0.1214 -0.0548 -0.9911
vn 0.0832 0.0393 -0.9958
vn 0.3303 0.6125 -0.7182
vn -0.5181 -0.8027 0.2954
vn -0.8186 -0.2050 0.5365
vn 0.1107 0.8746 0.4721
vn 0.9327 0.0830 0.3511
vn -0.0635 -0.0223 -0.9977
vn -0.6810 0.1374 -0.7193
vn -0.0387 0.0758 -0.9964
vn -0.5061 -0.8399 0.1959
vn 0.6874 -0.5168 0.5103
vn -0.0626 0.8968 0.4380
vn -0.0282 0.9383 0.3447
vn -0.7062 0.7080 -0.0043
vn 0.0295 -0.3332 -0.9424
vn 0.0249 -0.4368 -0.8992
vn -0.0355 -0.0285 -0.9990
vn 0.2172 0.0749 -0.9732
vn 0.1277 0.4696 -0.8736
vn 0.0454 0.4157 -0.9084
vn 0.7805 -0.6247 -0.0249
vn -0.0015 -0.9732 0.2298
vn -0.1596 0.2792 0.9469
vn -0.0502 0.8554 0.5155
vn -0.7335 -0.6364 0.2389
vn -0.2611 0.7566 -0.5995
vn 0.0465 -0.4467 0.8935
vn -0.2811 0.1866 -0.9414
vn -0.6830 -0.3696 0.6300
vn 0.1674 -0.7643 0.6228
vn 0.2126 0.3742 -0.9027
vn 0.1567 0.7367 -0.6578
vn -0.1186 0.7225 0.6811
vn -0.0162 0.9676 0.2520
vn -0.0417 0.9752 0.2174
vn -0.0739 0.9797 0.1863
vn -0.9587 0.0836 -0.2718
vn -0.2188 -0.3169 -0.9229
vn -0.2307 0.2687 -0.9352
vn -0.2623 0.3705 -0.8910
vn 0.0028 -0.8100 0.5864
vn -0.1684 -0.3750 0.9116
vn -0.0440 0.7311 0.6808
vn -0.0710 0.9893 -0.1278
vn -0.0700 -0.4852 -0.8716
vn -0.1918 0.2916 -0.9371
vn -0.3140 0.1293 -0.9406
vn -0.3535 -0.4223 0.8347
vn 0.0418 -0.8098 0.5852
vn 0.9061 -0.4190 0.0584
vn -0.0680 0.9869 0.1461
vn 0.9019 -0.4270 -0.0658
vn -0.7067 0.0222 -0.7072
vn 0.1370 -0.7419 -0.6564
vn -0.6745 0.7206 -0.1602
vn 0.0824 -0.5927 0.8012
vn 0.9624 0.0967 0.2539
vn -0.3095 -0.8924 -0.3282
vn 0.8693 0.3836 0.3119
vn 0.4672 -0.1955 -0.8623
vn -0.4798 0.3188 -0.8174
vn -0.7944 0.6012 0.0868
vn -0.0055 0.2284 0.9735
vn 0.1752 0.2631 0.9487
vn 0.6468 -0.6825 0.3403
vn 0.3946 -0.4915 0.7764
vn -0.4944 0.0256 0.8689
vn -0.0345 -0.2799 0.9594
vn 0.5361 -0.4122 0.7367
vn 0.1653 -0.7330 0.6598
vn 0.2293 -0.9723 -0.0458
vn -0.4160 -0.8946 0.1633
vn -0.2281 -0.9736 -0.0071
vn 0.0073 -0.6686 0.7436
vn 0.4280 0.3840 -0.8181
vn -0.0801 -0.0487 -0.9956
vn 0.6403 0.7572 -0.1291
vn -0.3145 0.8865 -0.3393
vn -0.5274 -0.7819 -0.3325
vn -0.0446 -0.1914 0.9805
vn -0.1000 -0.0262 -0.9946
vn 0.0969 0.1865 -0.9777
vn 0.7417 -0.6282 -0.2351
vn 0.2034 -0.9778 -0.0511
vn 0.3017 -0.0292 -0.9529
vn -0.2065 -0.4824 -0.8513
vn 0.1010 0.1621 -0.9816
vn 0.7012 0.6803 -0.2133
vn 0.2060 0.9283 -0.3095
vn -0.1968 -0.4376 -0.8774
vn 0.0269 0.6074 -0.7939
vn -0.1275 0.6612 -0.7393
vn -0.0214 0.8946 -0.4463
vn -0.1680 0.8270 -0.5365
vn -0.8003 -0.2702 -0.5352
vn -0.4609 0.0266 -0.8871
vn 0.5141 -0.0067 -0.8577
vn 0.0947 0.9628 0.2533
vn 0.0699 -0.9289 -0.3637
vn 0.0246 -0.9761 -0.2161
vn -0.2206 -0.9671 0.1266
vn -0.2869 -0.9188 0.2710
vn -0.0273 0.9942 -0.1036
vn -0.2030 -0.8694 -0.4505
vn 0.4451 -0.2391 -0.8630
vn 0.4964 0.4156 -0.7621
vn -0.3073 -0.9513 0.0238
vn -0.1184 -0.9927 -0.0224
vn 0.9809 0.1593 -0.1112
vn -0.4902 0.2168 -0.8442
vn -0.0333 0.9954 -0.0897
vn -0.6508 0.6308 -0.4227
vn 0.2298 -0.9732 -0.0036
vn 0.0420 -0.9617 0.2707
vn -0.7923 -0.5586 -0.2453
vn -0.6131 0.7111 -0.3442
vn -0.3300 0.7442 -0.5807
vn -0.9279 -0.2457 -0.2805
vn -0.6150 0.4399 -0.6544
vn -0.8456 0.3407 0.4110
vn 0.8201 0.5684 -0.0659
vn 0.7332 0.6779 0.0534
vn 0.6962 0.6669 -0.2656
vn -0.0137 -0.9953 -0.0959
vn 0.7388 -0.6616 -0.1280
vn 0.6679 0.2524 -0.7002
vn 0.2272 -0.9738 -0.0118
vn 0.8100 -0.5712 0.1329
vn -0.5807 0.8025 -0.1372
vn 0.2043 0.7827 0.5879
vn 0.3638 0.9090 -0.2035
vn -0.7889 0.5921 0.1645
vn 0.6294 0.7712 -0.0956
vn 0.1094 0.9908 -0.0798
vn -0.1880 -0.9481 -0.2564
vn -0.4072 -0.8920 0.1964
vn 0.8171 0.5526 0.1644
vn 0.7925 0.5975 0.1220
vn 0.3888 0.3460 0.8539
vn -0.1902 0.9817 -0.0062
vn 0.1447 0.2885 0.9465
vn -0.1565 0.9869 -0.0386
vn -0.9530 0.2810 0.1135
vn -0.0673 0.1849 0.9804
vn 0.9792 -0.1840 0.0858
vn -0.3186 0.2208 0.9218
vn -0.4975 -0.1663 0.8514
vn 0.0776 -0.6858 0.7237
vn 0.8188 0.0899 0.5670
vn 0.0399 -0.3976 0.9167
vn -0.4438 0.8961 0.0059
vn -0.1513 0.4879 0.8597
vn -0.7874 -0.6123 -0.0714
vn -0.9716 -0.0933 0.2176
vn -0.1747 -0.9310 -0.3206
vn 0.2310 -0.8946 0.3824
vn -0.0735 0.1747 0.9819
vn 0.4632 0.1730 0.8692
vn 0.6394 0.2433 0.7294
vn -0.4037 0.8226 0.4004
vn -0.1727 0.9087 0.3801
vn -0.0154 -0.9939 0.1092
vn 0.1978 -0.9788 0.0530
vn 0.4506 0.8925 0.0212
vn -0.4287 0.8959 -0.1163
vn 0.0094 -0.4512 -0.8924
vn -0.2356 0.5550 -0.7978
vn -0.6463 0.3126 0.6961
vn -0.4987 0.4789 0.7225
vn 0.1337 0.9277 0.3485
vn 0.7216 -0.4737 -0.5049
vn 0.1870 0.1693 -0.9677
vn -0.1051 -0.2014 -0.9739
vn 0.2096 0.4963 -0.8425
vn -0.9106 -0.1489 -0.3856
vn 0.2276 0.0563 -0.9721
vn -0.3281 -0.1486 -0.9329
vn 0.1979 -0.9787 0.0547
vn 0.2197 -0.9707 0.0970
vn -0.1814 0.5623 0.8068
vn 0.0606 0.8694 0.4905
vn -0.7357 0.0269 0.6768
vn 0.1904 -0.7113 0.6766
vn 0.7026 0.0339 0.7108
vn 0.5541 -0.4507 -0.6999
vn -0.1191 0.3518 -0.9285
vn -0.0573 -0.1991 -0.9783
vn -0.4577 0.4351 0.7753
vn -0.1686 0.5436 0.8223
vn 0.0956 0.7955 0.5983
vn -0.4464 0.6869 -0.5736
vn -0.0951 0.1134 -0.9890
vn 0.0325 -0.0339 0.9989
vn 0.6573 0.1576 0.7370
vn 0.1217 -0.5936 -0.7955
vn 0.6871 0.2961 0.6635
vn -0.7420 -0.6642 -0.0910
vn -0.6559 -0.1402 -0.7417
vn 0.0203 -0.7653 -0.6434
vn 0.2267 0.9312 0.2854
vn 0.9908 0.0857 0.1046
vn 0.0027 0.9636 -0.2672
vn -0.9908 -0.0023 0.1350
vn 0.1336 -0.3019 0.9439
vn 0.6979 -0.5581 0.4488
vn 0.8433 -0.1737 0.5086
vn -0.2331 -0.4465 0.8639
vn -0.0834 0.1475 0.9855
vn -0.2101 -0.0121 0.9776
vn -0.8897 0.4564 0.0048
vn -0.7812 -0.5805 -0.2297
vn -0.8205 0.5513 -0.1510
vn -0.8722 0.3336 0.3579
vn -0.2749 0.7790 0.5636
vn -0.2081 -0.4604 0.8630
vn 0.1197 0.3833 0.9158
vn -0.0055 0.0727 0.9973
vn -0.7516 -0.6554 -0.0745
vn -0.9926 0.0799 -0.0920
vn -0.0028 -0.9750 -0.2221
vn 0.9915 0.1258 0.0341
vn -0.8246 0.0374 0.5645
vn -0.2936 0.8584 0.4207
vn 0.9615 0.2072 0.1807
vn 0.9540 0.2631 0.1439
vn -0.0599 -0.3427 0.9376
vn 0.3381 0.1691 0.9258
vn 0.0834 0.0129 0.9964
vn -0.0045 0.0857 0.9963
vn 0.0178 -0.9640 0.2653
vn 0.6026 -0.7799 0.1693
vn 0.0818 0.9949 -0.0590
vn -0.2320 0.8410 0.4889
vn -0.1159 0.6450 0.7554
vn -0.7352 0.4995 0.4583
vn -0.9293 0.2078 0.3053
vn 0.2968 0.3027 0.9057
vn -0.0289 -0.4465 0.8943
vn 0.0100 0.9467 0.3220
vn -0.0283 -0.2374 0.9710
vn 0.0602 0.9832 0.1722
vn 0.1769 0.6748 0.7165
vn -0.1825 0.0489 0.9820
vn -0.0084 0.1664 0.9860
vn -0.0743 0.0281 0.9968
vn -0.0135 -0.0589 0.9982
vn -0.0289 0.4121 0.9107
vn 0.5983 -0.3182 0.7354
vn 0.5209 0.8468 0.1074
vn 0.5007 -0.8600 -0.0983
vn 0.9999 0.0106 -0.0078
vn 0.3160 0.9487 0.0108
vn 0.0372 0.9941 0.1017
vn -0.0944 -0.9955 0.0057
vn 0.1267 -0.2631 0.9564
vn 0.1093 -0.1974 0.9742
vt 0.141073 0.795783
vt 0.131913 0.832476
vt 0.175431 0.785347
vt 0.175431 0.827465
vt 0.091340 0.763580
vt 0.120056 0.741960
vt 0.130100 0.769923
vt 0.675884 0.394382
vt 0.407875 0.456616
vt 0.661151 0.434546
vt 0.055757 0.758344
vt 0.988667 0.464076
vt 0.988667 0.701371
vt 0.948776 0.686531
vt 0.954434 0.458012
vt 0.644645 0.383462
vt 0.097140 0.535253
vt 0.651381 0.188955
vt 0.908623 0.150386
vt 0.539663 0.176096
vt 0.796513 0.183834
vt 0.624795 0.205598
vt 0.889733 0.179274
vt 0.532638 0.150386
vt 0.818669 0.044130
vt 0.451043 0.011568
vt 0.832175 0.011568
vt 0.855394 0.036093
vt 0.206256 0.282348
vt 0.205850 0.308034
vt 0.171104 0.282348
vt 0.538049 0.209291
vt 0.934436 0.187916
vt 0.943336 0.163184
vt 0.064016 0.065553
vt 0.160018 0.041628
vt 0.118907 0.020994
vt 0.873527 0.821952
vt 0.880799 0.851813
vt 0.940696 0.830767
vt 0.654224 0.253213
vt 0.951496 0.760619
vt 0.988667 0.786204
vt 0.988667 0.725364
vt 0.922351 0.220804
vt 0.698550 0.228137
vt 0.684921 0.191681
vt 0.174524 0.085261
vt 0.028665 0.085261
vt 0.045174 0.113503
vt 0.764685 0.251131
vt 0.821850 0.242074
vt 0.804507 0.277757
vt 0.920431 0.721108
vt 0.899547 0.676521
vt 0.771493 0.765143
vt 0.833193 0.955622
vt 0.888348 0.942441
vt 0.787775 0.905282
vt 0.130100 0.538955
vt 0.169084 0.315767
vt 0.071580 0.032455
vt 0.853581 0.554478
vt 0.881175 0.516376
vt 0.897191 0.536610
vt 0.612711 0.256291
vt 0.746723 0.676521
vt 0.345075 0.857472
vt 0.326739 0.822194
vt 0.314508 0.866058
vt 0.950589 0.359945
vt 0.985947 0.340617
vt 0.957914 0.384942
vt 0.025839 0.131534
vt 0.068223 0.120570
vt 0.072509 0.119270
vt 0.019492 0.032574
vt 0.928611 0.770361
vt 0.934003 0.856321
vt 0.742130 0.398948
vt 0.729508 0.823488
vt 0.714869 0.713410
vt 0.068621 0.523638
vt 0.946056 0.595852
vt 0.915371 0.268155
vt 0.946056 0.248072
vt 0.896282 0.359146
vt 0.883703 0.254436
vt 0.102114 0.832476
vt 0.019492 0.805913
vt 0.130100 0.805913
vt 0.296267 0.845310
vt 0.996827 0.934447
vt 0.996827 0.880463
vt 0.975975 0.897727
vt 0.027652 0.781919
vt 0.027652 0.696230
vt 0.003173 0.732729
vt 0.957842 0.732172
vt 0.957397 0.736387
vt 0.150045 0.649100
vt 0.130100 0.667921
vt 0.150045 0.686804
vt 0.265292 0.826042
vt 0.223067 0.843413
vt 0.255294 0.849727
vt 0.460109 0.135818
vt 0.452931 0.160668
vt 0.415684 0.135818
vt 0.116246 0.127104
vt 0.138314 0.122593
vt 0.163060 0.125441
vt 0.129934 0.396575
vt 0.075703 0.357755
vt 0.144606 0.357755
vt 0.774969 0.449212
vt 0.683784 0.393023
vt 0.634615 0.344062
vt 0.916280 0.496804
vt 0.912169 0.579540
vt 0.138419 0.126529
vt 0.648124 0.586547
vt 0.633273 0.564267
vt 0.694923 0.564267
vt 0.951328 0.782934
vt 0.945389 0.803434
vt 0.186694 0.850909
vt 0.208520 0.822646
vt 0.187055 0.827642
vt 0.063010 0.142335
vt 0.138259 0.138389
vt 0.077837 0.161525
vt 0.063625 0.138389
vt 0.106576 0.412596
vt 0.036315 0.822194
vt 0.048652 0.833861
vt 0.135047 0.845973
vt 0.030908 0.020994
vt 0.905121 0.630822
vt 0.881792 0.611497
vt 0.916138 0.118265
vt 0.916138 0.092973
vt 0.894379 0.108861
vt 0.523453 0.897648
vt 0.906081 0.141817
vt 0.884263 0.976435
vt 0.421507 0.433290
vt 0.894038 0.486334
vt 0.931795 0.633789
vt 0.985947 0.390317
vt 0.168390 0.831279
vt 0.139246 0.896714
vt 0.876271 0.655099
vt 0.913121 0.952611
vt 0.711837 0.557936
vt 0.345648 0.019590
vt 0.423844 0.121148
vt 0.412714 0.000428
vt 0.395030 0.407769
vt 0.430068 0.431113
vt 0.448888 0.389787
vt 0.128261 0.503428
vt 0.821850 0.646315
vt 0.725660 0.606776
vt 0.812875 0.598390
vt 0.384859 0.378623
vt 0.377084 0.316624
vt 0.359932 0.358845
vt 0.765249 0.562488
vt 0.602819 0.638883
vt 0.241693 0.009916
vt 0.225049 0.074420
vt 0.124544 0.000428
vt 0.143082 0.392031
vt 0.468216 0.051150
vt 0.442883 0.074002
vt 0.490172 0.086118
vt 0.696308 0.146958
vt 0.713055 0.125536
vt 0.465549 0.125536
vt 0.999547 0.026135
vt 0.999547 0.267740
vt 0.975854 0.051686
vt 0.896584 0.087395
vt 0.911605 0.044130
vt 0.865774 0.051471
vt 0.712481 0.653578
vt 0.604700 0.680805
vt 0.524920 0.048620
vt 0.577969 0.026992
vt 0.956537 0.310617
vt 0.697020 0.894864
vt 0.713030 0.932520
vt 0.747194 0.882802
vt 0.483867 0.979890
vt 0.640281 0.917440
vt 0.637769 0.974938
vt 0.420579 0.317229
vt 0.433548 0.236932
vt 0.259134 0.240626
vt 0.180377 0.348132
vt 0.450680 0.026992
vt 0.256005 0.971137
vt 0.774705 0.915957
vt 0.251587 0.683120
vt 0.208036 0.715938
vt 0.155485 0.605681
vt 0.791098 0.666931
vt 0.257303 0.284553
vt 0.364873 0.465724
vt 0.382771 0.426097
vt 0.002728 0.837074
vt 0.587942 0.659072
vt 0.485494 0.133248
vt 0.532638 0.133248
vt 0.502624 0.162251
vt 0.510766 0.242931
vt 0.121940 0.254044
vt 0.935177 0.033241
vt 0.527572 0.074945
vt 0.626020 0.825621
vt 0.486308 0.825621
vt 0.506870 0.845330
vt 0.000453 0.938867
vt 0.504081 0.246283
vt 0.469175 0.844190
vt 0.317597 0.418890
vt 0.847198 0.098491
vt 0.882906 0.121251
vt 0.325777 0.969182
vt 0.247662 0.133668
vt 0.320921 0.150798
vt 0.690725 0.880845
vt 0.610768 0.755035
vt 0.608970 0.796348
vt 0.601771 0.370508
vt 0.495490 0.350382
vt 0.728141 0.885604
vt 0.598656 0.236932
vt 0.316383 0.383462
vt 0.751133 0.869588
vt 0.219855 0.585882
vt 0.698201 0.776456
vt 0.703987 0.673093
vt 0.076609 0.316624
vt 0.997312 0.310626
vt 0.639719 0.676462
vt 0.443198 0.820539
vt 0.315593 0.999572
vt 0.221476 0.985673
vt 0.457615 0.734964
vt 0.191333 0.476597
vt 0.075703 0.470009
vt 0.168577 0.511997
vt 0.800475 0.075753
vt 0.812380 0.101542
vt 0.794494 0.044130
vt 0.112014 0.960199
vt 0.705073 0.064790
vt 0.195823 0.209733
vt 0.459076 0.220622
vt 0.321114 0.182322
vt 0.387808 0.176378
vt 0.415778 0.801222
vt 0.371045 0.859597
vt 0.142516 0.151276
vt 0.176282 0.171919
vt 0.172870 0.194014
vt 0.125792 0.195600
vt 0.287835 0.165810
vt 0.475977 0.183899
vt 0.500907 0.209741
vt 0.116629 0.230077
vt 0.097525 0.168191
vt 0.039118 0.964793
vt 0.011435 0.958948
vt 0.491173 0.389460
vt 0.618767 0.386602
vt 0.111967 0.166727
vt 0.135435 0.171943
vt 0.296210 0.393385
vt 0.225295 0.470009
vt 0.219622 0.491927
vt 0.069656 0.165810
vt 0.066636 0.210063
vt 0.349630 0.825673
vt 0.137141 0.177806
vt 0.837262 0.671380
vt 0.810970 0.551180
vt 0.812666 0.550557
vt 0.837262 0.550604
vt 0.571887 0.661433
vt 0.633799 0.549332
vt 0.550104 0.641509
vt 0.541674 0.708226
vt 0.117019 0.302120
vt 0.118314 0.242931
vt 0.118314 0.308055
vt 0.294212 0.393733
vt 0.095648 0.290584
vt 0.406081 0.493967
vt 0.446295 0.534595
vt 0.564502 0.533402
vt 0.365276 0.503931
vt 0.335654 0.509788
vt 0.328814 0.533577
vt 0.167271 0.535990
vt 0.141389 0.581405
vt 0.137353 0.535990
vt 0.987761 0.931877
vt 0.954285 0.936036
vt 0.987761 0.985004
vt 0.388201 0.585106
vt 0.211431 0.560987
vt 0.215468 0.563665
vt 0.306475 0.724719
vt 0.313986 0.673093
vt 0.123753 0.743895
vt 0.067069 0.424493
vt 0.226161 0.446095
vt 0.062103 0.580548
vt 0.016772 0.564516
vt 0.048825 0.564624
vt 0.810063 0.529991
vt 0.791025 0.564602
vt 0.810063 0.583976
vt 0.273714 0.582150
vt 0.256009 0.604294
vt 0.373506 0.665499
vt 0.442625 0.699134
vt 0.064823 0.443448
vt 0.027832 0.229891
vt 0.241288 0.526043
vt 0.952635 0.976585
vt 0.255924 0.529479
vt 0.217944 0.520523
vt 0.263132 0.675205
vt 0.062103 0.226890
vt 0.046535 0.177806
vt 0.966908 0.858183
vt 0.949230 0.900534
vt 0.923721 0.889805
vt 0.225295 0.573735
vt 0.289013 0.694279
vt 0.670342 0.466581
vt 0.653957 0.489765
vt 0.672257 0.507056
vt 0.910698 0.943135
vt 0.564686 0.485007
vt 0.580166 0.526752
vt 0.298616 0.466581
vt 0.966908 0.929418
vt 0.911605 0.937875
vt 0.251587 0.478578
vt 0.804624 0.432039
vt 0.866274 0.233334
vt 0.832887 0.193231
vt 0.652312 0.856470
vt 0.646193 0.878749
vt 0.399365 0.856470
vt 0.560949 0.118889
vt 0.548957 0.061724
vt 0.866274 0.447729
vt 0.751133 0.990068
vt 0.771602 0.931877
vt 0.775612 0.991859
vt 0.752010 0.931877
s 0
usemtl Material_0
f 1/1/1 4/2/1 2/3/1
f 4/2/2 3/4/2 2/3/2
f 1/5/3 39/6/3 4/7/3
f 4/8/4 55/9/4 3/10/4
f 1/5/5 2/11/5 39/6/5
f 64/12/6 2/13/6 3/14/6
f 64/12/7 3/14/7 55/15/7
f 39/16/8 55/9/8 4/8/8
f 39/6/9 2/11/9 53/17/9
f 6/18/10 8/19/10 5/20/10
f 8/19/11 6/18/11 13/21/11
f 6/18/12 5/20/12 12/22/12
f 8/19/13 13/21/13 18/23/13
f 5/20/14 8/19/14 17/24/14
f 7/25/15 17/26/15 8/27/15
f 7/25/16 8/27/16 10/28/16
f 5/29/17 17/30/17 26/31/17
f 26/32/18 12/22/18 5/20/18
f 9/33/19 8/19/19 18/23/19
f 8/19/20 9/33/20 10/34/20
f 18/35/21 13/36/21 20/37/21
f 11/38/22 16/39/22 13/40/22
f 23/41/23 6/18/23 12/22/23
f 20/42/24 13/43/24 16/44/24
f 9/33/25 18/23/25 14/45/25
f 29/46/26 6/18/26 23/41/26
f 6/18/27 29/46/27 15/47/27
f 13/48/28 6/49/28 15/50/28
f 23/51/29 12/52/29 21/53/29
f 29/54/30 23/55/30 25/56/30
f 16/39/31 11/38/31 67/57/31
f 67/57/32 14/58/32 16/39/32
f 25/56/33 67/57/33 11/38/33
f 67/57/34 25/56/34 51/59/34
f 39/6/35 53/17/35 48/60/35
f 17/30/36 33/61/36 26/31/36
f 18/35/37 20/37/37 34/62/37
f 16/63/38 19/64/38 20/65/38
f 11/38/39 29/54/39 25/56/39
f 23/51/40 21/53/40 22/66/40
f 22/67/41 25/56/41 23/55/41
f 21/68/42 12/69/42 40/70/42
f 15/71/43 29/72/43 35/73/43
f 15/50/44 35/74/44 24/75/44
f 28/76/45 15/50/45 24/75/45
f 14/77/46 18/35/46 34/62/46
f 36/78/47 29/54/47 11/38/47
f 14/58/48 19/79/48 16/39/48
f 21/53/49 31/80/49 22/66/49
f 52/81/50 51/59/50 25/56/50
f 25/56/51 22/67/51 53/82/51
f 25/56/52 53/82/52 52/81/52
f 53/17/53 2/11/53 64/83/53
f 7/84/54 33/85/54 17/86/54
f 33/85/55 35/87/55 26/88/55
f 12/89/56 26/90/56 35/91/56
f 12/69/57 35/92/57 40/70/57
f 35/93/58 30/94/58 24/95/58
f 35/96/59 27/97/59 30/98/59
f 24/99/60 29/54/60 28/100/60
f 24/101/61 30/102/61 29/103/61
f 28/104/62 36/105/62 30/106/62
f 28/100/63 29/54/63 36/78/63
f 28/107/64 30/108/64 27/109/64
f 28/76/65 27/110/65 15/50/65
f 27/110/66 13/48/66 15/50/66
f 13/48/67 27/110/67 37/111/67
f 13/48/68 37/111/68 41/112/68
f 41/113/69 11/114/69 13/115/69
f 46/116/70 31/80/70 21/53/70
f 32/117/71 22/66/71 31/80/71
f 81/118/72 22/66/72 32/117/72
f 49/119/73 33/85/73 7/84/73
f 20/65/74 7/84/74 34/120/74
f 35/74/75 38/121/75 27/110/75
f 41/112/76 38/121/76 35/74/76
f 29/122/77 30/123/77 40/124/77
f 27/125/78 36/78/78 37/126/78
f 37/126/79 36/78/79 11/38/79
f 42/127/80 36/105/80 27/128/80
f 42/127/81 27/128/81 38/129/81
f 38/130/82 11/131/82 42/132/82
f 38/121/83 41/112/83 37/111/83
f 38/130/84 37/133/84 11/131/84
f 41/113/85 42/134/85 11/114/85
f 14/135/86 44/136/86 19/137/86
f 14/77/87 34/62/87 44/138/87
f 45/139/88 44/140/88 34/120/88
f 45/141/89 10/142/89 9/143/89
f 21/68/90 40/70/90 46/144/90
f 9/143/91 14/145/91 45/141/91
f 67/57/92 66/146/92 14/58/92
f 46/116/93 32/117/93 31/80/93
f 48/147/94 55/9/94 39/16/94
f 35/87/95 49/119/95 41/148/95
f 7/84/96 20/65/96 49/119/96
f 49/119/97 20/65/97 19/64/97
f 10/149/98 45/139/98 7/84/98
f 49/119/99 19/64/99 41/148/99
f 45/139/100 34/120/100 7/84/100
f 29/72/101 40/150/101 35/73/101
f 36/105/102 40/70/102 30/106/102
f 41/151/103 19/137/103 43/152/103
f 41/151/104 43/152/104 42/127/104
f 42/127/105 43/152/105 36/105/105
f 44/140/106 45/139/106 66/153/106
f 14/58/107 66/146/107 45/154/107
f 68/155/108 32/117/108 46/116/108
f 51/156/109 47/157/109 67/158/109
f 84/159/110 53/160/110 22/161/110
f 48/60/111 53/17/111 84/162/111
f 33/85/112 49/119/112 35/87/112
f 62/163/113 72/164/113 61/165/113
f 72/164/114 68/155/114 46/116/114
f 57/166/115 71/167/115 54/168/115
f 44/136/116 43/152/116 19/137/116
f 72/164/117 50/169/117 61/165/117
f 46/116/118 50/169/118 72/164/118
f 68/155/119 72/164/119 75/170/119
f 52/171/120 88/172/120 51/156/120
f 52/171/121 53/173/121 88/172/121
f 57/166/122 54/168/122 63/174/122
f 64/175/123 55/176/123 56/177/123
f 63/178/124 60/179/124 57/180/124
f 57/181/125 60/182/125 58/183/125
f 56/184/126 55/185/126 69/186/126
f 73/187/127 59/188/127 72/164/127
f 75/170/128 72/164/128 59/188/128
f 64/175/129 63/189/129 88/190/129
f 58/183/130 60/182/130 104/191/130
f 43/152/131 40/70/131 36/105/131
f 61/192/132 76/193/132 62/194/132
f 108/195/133 50/196/133 46/144/133
f 50/196/134 108/195/134 82/197/134
f 83/198/135 32/199/135 68/200/135
f 88/201/136 63/174/136 54/168/136
f 64/175/137 88/190/137 53/202/137
f 64/175/138 56/177/138 63/189/138
f 86/203/139 46/144/139 40/70/139
f 62/194/140 76/193/140 65/204/140
f 66/205/141 67/206/141 47/207/141
f 72/164/142 62/163/142 74/208/142
f 83/198/143 68/200/143 80/209/143
f 69/210/144 55/9/144 70/211/144
f 66/212/145 43/152/145 44/136/145
f 54/168/146 71/167/146 88/201/146
f 48/147/147 84/159/147 70/211/147
f 55/9/148 48/147/148 70/211/148
f 78/213/149 75/170/149 59/188/149
f 62/214/150 65/215/150 74/216/150
f 72/164/151 74/208/151 73/187/151
f 65/215/152 73/217/152 74/216/152
f 80/209/153 68/200/153 75/218/153
f 71/219/154 57/181/154 58/183/154
f 63/189/155 56/177/155 60/220/155
f 40/70/156 43/152/156 86/203/156
f 50/196/157 76/193/157 61/192/157
f 80/221/158 75/222/158 77/223/158
f 107/224/159 43/152/159 66/212/159
f 76/193/160 50/196/160 82/197/160
f 81/225/161 32/199/161 83/198/161
f 71/219/162 58/183/162 104/191/162
f 77/223/163 75/222/163 78/226/163
f 70/211/164 112/227/164 69/210/164
f 90/228/165 60/229/165 56/184/165
f 90/228/166 56/184/166 69/186/166
f 46/144/167 86/203/167 79/230/167
f 108/195/168 46/144/168 79/230/168
f 88/172/169 110/231/169 51/156/169
f 110/231/170 122/232/170 51/156/170
f 77/233/171 82/234/171 80/235/171
f 85/236/172 81/225/172 94/237/172
f 78/238/173 82/234/173 77/233/173
f 81/225/174 85/236/174 22/239/174
f 22/161/175 85/240/175 84/159/175
f 78/238/176 59/241/176 82/234/176
f 47/207/177 107/242/177 66/205/177
f 73/243/178 65/244/178 82/234/178
f 73/243/179 82/234/179 59/241/179
f 88/201/180 71/167/180 104/245/180
f 60/182/181 90/246/181 104/191/181
f 76/247/182 82/234/182 65/244/182
f 94/237/183 81/225/183 83/198/183
f 80/235/184 82/234/184 83/248/184
f 84/159/185 85/240/185 70/211/185
f 85/240/186 112/227/186 70/211/186
f 79/230/187 86/203/187 117/249/187
f 86/203/188 43/152/188 87/250/188
f 82/234/189 108/251/189 83/248/189
f 100/252/190 88/253/190 104/254/190
f 89/255/191 104/256/191 90/228/191
f 112/257/192 89/255/192 69/186/192
f 69/186/193 89/255/193 90/228/193
f 87/250/194 43/152/194 91/258/194
f 107/224/195 91/258/195 43/152/195
f 47/157/196 51/156/196 122/232/196
f 92/259/197 89/255/197 112/257/197
f 97/260/198 93/261/198 86/262/198
f 93/261/199 117/263/199 86/262/199
f 83/248/200 108/251/200 101/264/200
f 83/248/201 101/264/201 94/265/201
f 100/266/202 110/231/202 88/172/202
f 91/267/203 95/268/203 97/260/203
f 95/268/204 98/269/204 97/260/204
f 97/260/205 87/270/205 91/267/205
f 87/270/206 97/260/206 86/262/206
f 127/271/207 93/261/207 131/272/207
f 98/269/208 96/273/208 97/260/208
f 98/269/209 109/274/209 96/273/209
f 109/275/210 91/258/210 107/224/210
f 99/276/211 109/275/211 107/224/211
f 123/277/212 103/278/212 85/236/212
f 85/279/213 103/280/213 100/266/213
f 112/227/214 85/240/214 102/281/214
f 85/282/215 100/252/215 102/283/215
f 102/283/216 100/252/216 104/254/216
f 99/284/217 116/285/217 96/273/217
f 93/261/218 127/271/218 117/263/218
f 99/284/219 96/273/219 109/274/219
f 123/286/220 94/265/220 101/264/220
f 123/277/221 85/236/221 94/237/221
f 100/266/222 111/287/222 110/231/222
f 123/288/223 113/289/223 102/290/223
f 103/291/224 123/288/224 102/290/224
f 113/292/225 123/293/225 111/294/225
f 113/292/226 111/294/226 104/295/226
f 103/296/227 104/297/227 111/298/227
f 103/280/228 111/287/228 100/266/228
f 112/227/229 102/281/229 113/299/229
f 103/296/230 102/300/230 104/297/230
f 97/260/231 96/273/231 93/261/231
f 105/301/232 106/302/232 118/303/232
f 121/304/233 95/305/233 91/306/233
f 121/307/234 98/308/234 95/309/234
f 79/310/235 117/311/235 125/312/235
f 106/302/236 120/313/236 118/303/236
f 107/242/237 119/314/237 99/315/237
f 107/242/238 47/207/238 119/314/238
f 125/316/239 108/251/239 79/317/239
f 120/318/240 101/264/240 125/316/240
f 108/251/241 125/316/241 101/264/241
f 114/319/242 92/320/242 112/227/242
f 131/321/243 93/322/243 126/323/243
f 109/324/244 98/325/244 124/326/244
f 120/313/245 106/302/245 105/301/245
f 109/327/246 119/328/246 91/306/246
f 123/286/247 101/264/247 120/318/247
f 122/329/248 110/330/248 111/294/248
f 111/294/249 123/293/249 122/329/249
f 112/227/250 113/299/250 114/319/250
f 92/320/251 114/319/251 115/331/251
f 96/332/252 126/323/252 93/322/252
f 99/315/253 119/314/253 116/333/253
f 125/312/254 117/311/254 118/334/254
f 124/335/255 119/328/255 109/327/255
f 119/314/256 130/336/256 116/333/256
f 120/313/257 121/304/257 91/306/257
f 119/328/258 120/313/258 91/306/258
f 47/337/259 122/329/259 119/328/259
f 119/328/260 122/329/260 120/313/260
f 122/329/261 123/293/261 120/313/261
f 126/323/262 96/332/262 129/338/262
f 96/332/263 116/339/263 129/338/263
f 121/340/264 124/341/264 98/342/264
f 130/343/265 119/328/265 124/335/265
f 125/316/266 118/344/266 120/318/266
f 131/345/267 128/346/267 127/347/267
f 117/311/268 132/348/268 118/334/268
f 121/304/269 120/313/269 105/301/269
f 126/323/270 129/338/270 131/321/270
f 127/347/271 132/349/271 117/350/271
f 131/345/272 129/351/272 132/349/272
f 127/347/273 128/346/273 132/349/273
f 129/351/274 121/304/274 105/301/274
f 121/340/275 129/352/275 124/341/275
f 124/341/276 129/352/276 130/353/276
f 131/345/277 132/349/277 128/346/277
f 132/349/278 129/351/278 105/301/278
f 132/349/279 105/301/279 118/303/279
f 130/336/280 129/354/280 116/333/280
f 104/256/281 89/255/281 92/259/281
f 134/355/282 113/356/282 104/357/282
f 133/358/283 134/359/283 104/360/283
f 104/256/284 92/259/284 133/361/284
f 115/362/285 133/361/285 92/259/285
f 134/355/286 114/363/286 113/356/286
f 133/364/287 114/365/287 134/366/287
f 114/365/288 133/364/288 115/367/288
